<svg width="26" height="26" viewBox="0 0 26 26" fill="none" xmlns="http://www.w3.org/2000/svg">
<path d="M0.580452 17.9945C0.580226 17.0312 0.769798 16.0773 1.13834 15.1872C1.50688 14.2972 2.04717 13.4885 2.72833 12.8073C3.4095 12.1262 4.2182 11.5859 5.10823 11.2173C5.99827 10.8488 6.95219 10.6592 7.9155 10.6594L9.91426 10.6594L9.91426 8.66069C9.91426 6.71531 10.6871 4.84961 12.0626 3.47402C13.4382 2.09843 15.3039 1.32563 17.2493 1.32563C19.1947 1.32563 21.0604 2.09843 22.436 3.47402C23.8116 4.84961 24.5844 6.71531 24.5844 8.66069L24.5844 10.6594L24.5844 25.3296L9.91426 25.3295L7.91551 25.3296C6.95219 25.3298 5.99827 25.1402 5.10824 24.7717C4.2182 24.4031 3.4095 23.8628 2.72834 23.1817C2.04717 22.5005 1.50688 21.6918 1.13834 20.8018C0.7698 19.9117 0.580227 18.9578 0.580452 17.9945Z" fill="#F08769" stroke="#F08769" stroke-linecap="round" stroke-linejoin="round"/>
</svg>
