<svg width="238" height="102" viewBox="0 0 238 102" fill="none" xmlns="http://www.w3.org/2000/svg">
<g clip-path="url(#clip0_3909_61142)">
<path d="M153.138 29.3918C153.373 29.3921 153.605 29.4499 153.812 29.5597C154.024 29.6713 154.198 29.8396 154.314 30.0446C154.427 30.2448 154.486 30.4693 154.486 30.6974C154.486 30.9256 154.427 31.15 154.314 31.3502C154.198 31.5552 154.024 31.7236 153.812 31.8352C153.605 31.945 153.373 32.0027 153.138 32.0031C152.908 32.0028 152.682 31.945 152.482 31.8352C152.27 31.7236 152.096 31.5552 151.981 31.3502C151.868 31.15 151.809 30.9256 151.809 30.6974C151.809 30.4693 151.868 30.2448 151.981 30.0446C152.096 29.8396 152.27 29.6713 152.482 29.5597C152.683 29.4521 152.908 29.3945 153.138 29.3918ZM153.138 29.6156C152.949 29.6144 152.764 29.6593 152.598 29.7462C152.417 29.8379 152.269 29.9811 152.174 30.1565C152.074 30.3203 152.021 30.5071 152.021 30.6974C152.021 30.8877 152.074 31.0745 152.174 31.2383C152.272 31.405 152.411 31.5459 152.579 31.6487C152.751 31.7356 152.943 31.7804 153.138 31.7792C153.332 31.7828 153.525 31.7378 153.697 31.6487C153.874 31.5518 154.021 31.4099 154.121 31.2383C154.221 31.0745 154.274 30.8877 154.274 30.6974C154.274 30.5071 154.221 30.3203 154.121 30.1565C154.021 29.9849 153.874 29.843 153.697 29.7462C153.525 29.657 153.332 29.6121 153.138 29.6156ZM152.559 31.4808V30.0819H153.061C153.181 30.0593 153.306 30.0593 153.427 30.0819C153.464 30.0895 153.499 30.1052 153.529 30.1278C153.559 30.1504 153.583 30.1794 153.6 30.2125C153.619 30.2796 153.619 30.3505 153.6 30.4176C153.599 30.516 153.557 30.6099 153.485 30.6788C153.445 30.7198 153.397 30.7525 153.344 30.7749C153.291 30.7974 153.234 30.8091 153.176 30.8093H153.311C153.388 30.8982 153.459 30.9917 153.523 31.0891L153.697 31.3689H153.407L153.273 31.1451C153.21 31.0246 153.132 30.9118 153.041 30.8093H152.848H152.714V31.4062L152.559 31.4808ZM152.791 30.6788H153.08C153.168 30.7047 153.262 30.7047 153.35 30.6788C153.362 30.6556 153.368 30.63 153.368 30.6042C153.368 30.5783 153.362 30.5527 153.35 30.5296C153.358 30.4927 153.358 30.4545 153.35 30.4176H152.848L152.791 30.6788Z" fill="black"/>
<path d="M97.6782 10.5347C96.3481 10.5347 92.0878 12.6051 79.924 30.3058C86.3471 25.7363 91.9593 20.1864 96.5409 13.8734C97.299 12.9141 97.8139 11.7961 98.0445 10.6093H97.6782V10.5347ZM108.975 26.2583C108.242 25.7174 103.982 29.0561 103.191 32.2829C102.943 33.129 103.033 34.0344 103.442 34.8196C106.681 32.656 110.864 27.6013 108.994 26.2583H108.975ZM14.536 35.1927C12.666 35.2111 10.799 35.3419 8.94568 35.5843C4.35772 36.1626 2.02519 38.1024 2.17941 39.3147C2.2758 40.1354 4.26134 41.18 9.13845 40.6577C13.3431 40.006 17.3162 38.3593 20.7047 35.8641C18.688 35.4617 16.6337 35.2617 14.5746 35.2673L14.536 35.1927ZM58.9119 63.0774C59.7409 63.4504 60.8397 62.8163 61.7457 62.2008C67.5288 57.9295 74.9698 43.1944 74.3915 38.6992C72.2517 41.8701 70.0541 44.9477 68.0493 47.7455C65.1192 51.8862 62.5746 55.4674 60.8589 58.2838C58.43 62.3127 58.9312 63.0215 58.9312 63.0588L58.9119 63.0774ZM59.5095 64.924C59.0503 64.9265 58.5961 64.8309 58.1794 64.6442C57.8987 64.5215 57.6525 64.3356 57.4613 64.102C57.2701 63.8683 57.1396 63.5937 57.0806 63.3012C56.4252 60.8951 59.8758 55.8404 66.5457 46.5144C68.7433 43.3995 71.2107 39.9303 73.5818 36.405C69.3126 38.8963 64.5757 40.5445 59.6445 41.2546C55.0758 41.8887 52.1264 41.2546 50.8927 39.1469C50.3882 38.2666 50.1794 37.2562 50.2951 36.2558C47.3842 39.2588 43.2397 42.1125 38.2083 41.7395C35.0888 41.5874 32.062 40.6625 29.418 39.0536C27.3633 37.9766 25.2232 37.0597 23.018 36.3118C19.139 39.4157 14.486 41.4802 9.52399 42.2991C1.52399 43.2317 0.52158 40.3033 0.405918 39.3894C0.136038 37.1884 2.96977 34.4466 8.77218 33.7938C13.3927 33.0643 18.1195 33.2739 22.6517 34.4093C30.2083 28.7018 37.2059 20.1591 42.8734 13.2392C47.7698 7.2333 51.3168 2.90603 53.7842 2.04804C54.6361 1.70898 55.5606 1.57594 56.4776 1.66044C57.3946 1.74495 58.2765 2.04444 59.0469 2.53299C59.8267 3.22322 60.4516 4.06121 60.8827 4.99493C61.3138 5.92864 61.542 6.93813 61.5529 7.96073C61.5529 7.96073 59.6252 7.56903 59.6252 6.99082C59.4703 5.82634 58.8889 4.75422 57.9866 3.9692C57.4441 3.64651 56.8274 3.45888 56.1916 3.42308C55.5559 3.38727 54.9208 3.50441 54.3433 3.76402C52.4156 4.36089 48.5601 8.94928 44.3192 14.2651C38.8252 20.9798 32.136 29.1867 24.7915 34.9875C26.6636 35.6989 28.4916 36.5148 30.2662 37.4309C32.6662 38.9244 35.4189 39.8037 38.2662 39.9862C46.8252 39.9862 53.2252 29.28 53.3794 29.0375C53.5336 28.795 54.7481 30.3431 54.4782 30.7908L54.2083 31.2384L53.4951 32.3202C52.4541 34.2787 51.5674 36.7967 52.4348 38.2516C53.3023 39.7064 55.6348 40.0235 59.3746 39.5013C65.2831 38.5475 70.8993 36.337 75.818 33.029C91.8951 8.98659 96.7144 7.58769 99.1047 9.21041C99.4686 9.45822 99.7327 9.82023 99.8522 10.235C99.9717 10.6498 99.9391 11.0917 99.7601 11.486C98.9698 14.862 92.9746 21.9684 85.8228 28.0303C83.0542 30.302 80.1444 32.4074 77.1095 34.3347C76.7433 34.8569 76.3963 35.3792 76.03 35.9387L75.683 36.4796C80.159 37.9496 84.8229 38.8157 89.5433 39.0536C93.8656 38.9451 98.0922 37.7977 101.842 35.7149C101.207 34.5732 101.029 33.2453 101.341 31.9845C102.189 28.1049 107.124 23.6471 109.418 24.5237C114.179 26.1651 109.187 33.4021 104.599 36.2558C105.876 37.1895 107.34 37.8563 108.897 38.2143C115.625 40.0795 124.319 38.2143 132.897 36.3491C137.708 35.1924 142.597 34.3696 147.529 33.887C154.199 33.458 157.881 36.4237 159.095 39.3521C159.674 40.8064 159.768 42.3999 159.364 43.9086C158.959 45.4174 158.077 46.7656 156.84 47.7641C156.84 47.7641 156.3 45.787 156.57 45.4513C157.185 44.6986 157.585 43.803 157.731 42.8538C157.876 41.9046 157.762 40.9351 157.399 40.0422C156.435 37.692 153.37 35.3232 147.76 35.6963C142.912 36.1666 138.106 36.977 133.379 38.121C124.685 39.9862 115.683 41.8514 108.512 39.9862C106.5 39.5403 104.637 38.61 103.095 37.2817C99.0043 39.6291 94.3561 40.9141 89.6011 41.0121C85.0583 40.8207 80.5638 40.03 76.2421 38.6619C76.7433 44.2575 68.6662 59.403 62.7481 63.6929C61.808 64.4773 60.6319 64.9481 59.3939 65.0359" fill="#1D1D1B"/>
<path d="M58.6988 25.4564C58.6003 25.6281 58.4678 25.7793 58.3088 25.9013C58.1498 26.0233 57.9674 26.1138 57.7722 26.1675C57.577 26.2212 57.3728 26.2371 57.1712 26.2143C56.9696 26.1915 56.7747 26.1304 56.5976 26.0346C56.3124 25.707 56.1642 25.288 56.182 24.8601C56.1999 24.4321 56.3825 24.0261 56.694 23.7217C57.3108 22.9383 58.4096 22.5653 58.9879 23.0503C59.5663 23.5352 59.3928 24.7103 58.7566 25.4937" fill="#1D1D1B"/>
</g>
<path d="M62.3594 83.5938V89.5H45.1328V83.5938H62.3594ZM47.7344 55.375V89.5H40.0938V55.375H47.7344ZM97.8156 71.6875V73.2109C97.8156 75.8047 97.4562 78.1328 96.7375 80.1953C96.0344 82.2578 95.0266 84.0156 93.7141 85.4688C92.4172 86.9219 90.8703 88.0391 89.0734 88.8203C87.2922 89.5859 85.3156 89.9688 83.1437 89.9688C80.9719 89.9688 78.9875 89.5859 77.1906 88.8203C75.3937 88.0391 73.8312 86.9219 72.5031 85.4688C71.1906 84.0156 70.175 82.2578 69.4562 80.1953C68.7375 78.1328 68.3781 75.8047 68.3781 73.2109V71.6875C68.3781 69.0938 68.7375 66.7656 69.4562 64.7031C70.175 62.625 71.1828 60.8594 72.4797 59.4062C73.7922 57.9531 75.3469 56.8438 77.1437 56.0781C78.9406 55.2969 80.925 54.9062 83.0969 54.9062C85.2687 54.9062 87.2531 55.2969 89.05 56.0781C90.8469 56.8438 92.3937 57.9531 93.6906 59.4062C95.0031 60.8594 96.0187 62.625 96.7375 64.7031C97.4562 66.7656 97.8156 69.0938 97.8156 71.6875ZM90.1047 73.2109V71.6406C90.1047 69.9062 89.9484 68.375 89.6359 67.0469C89.3234 65.7031 88.8703 64.5781 88.2766 63.6719C87.6828 62.7656 86.9484 62.0859 86.0734 61.6328C85.1984 61.1641 84.2062 60.9297 83.0969 60.9297C81.9406 60.9297 80.9328 61.1641 80.0734 61.6328C79.2141 62.0859 78.4875 62.7656 77.8937 63.6719C77.3156 64.5781 76.8703 65.7031 76.5578 67.0469C76.2609 68.375 76.1125 69.9062 76.1125 71.6406V73.2109C76.1125 74.9297 76.2609 76.4609 76.5578 77.8047C76.8703 79.1328 77.3234 80.2578 77.9172 81.1797C78.5109 82.1016 79.2375 82.7969 80.0969 83.2656C80.9719 83.7344 81.9875 83.9688 83.1437 83.9688C84.2531 83.9688 85.2375 83.7344 86.0969 83.2656C86.9719 82.7969 87.7062 82.1016 88.3 81.1797C88.8937 80.2578 89.3391 79.1328 89.6359 77.8047C89.9484 76.4609 90.1047 74.9297 90.1047 73.2109ZM119.397 81.9297L126.991 55.375H135.498L123.803 89.5H118.248L119.397 81.9297ZM112.483 55.375L120.053 81.9297L121.248 89.5H115.623L103.998 55.375H112.483ZM166.338 83.5938V89.5H148.173V83.5938H166.338ZM150.775 55.375V89.5H143.134V55.375H150.775ZM163.994 69.1094V74.8281H148.173V69.1094H163.994ZM166.361 55.375V61.3047H148.173V55.375H166.361ZM174.887 55.375H187.989C190.598 55.375 192.856 55.7656 194.762 56.5469C196.684 57.3281 198.161 58.4844 199.192 60.0156C200.223 61.5469 200.739 63.4375 200.739 65.6875C200.739 67.5625 200.434 69.1562 199.825 70.4688C199.216 71.7812 198.356 72.8672 197.247 73.7266C196.153 74.5859 194.872 75.2812 193.403 75.8125L190.919 77.1719H179.762L179.716 71.2422H188.012C189.153 71.2422 190.098 71.0391 190.848 70.6328C191.598 70.2266 192.161 69.6562 192.536 68.9219C192.927 68.1719 193.122 67.2969 193.122 66.2969C193.122 65.2656 192.927 64.375 192.536 63.625C192.145 62.875 191.567 62.3047 190.802 61.9141C190.052 61.5078 189.114 61.3047 187.989 61.3047H182.528V89.5H174.887V55.375ZM193.778 89.5L186.114 74.3359L194.177 74.3125L201.958 89.1484V89.5H193.778ZM228.414 80.5C228.414 79.9219 228.328 79.4062 228.156 78.9531C227.984 78.4844 227.672 78.0547 227.219 77.6641C226.766 77.2734 226.125 76.8828 225.297 76.4922C224.469 76.0859 223.383 75.6719 222.039 75.25C220.508 74.75 219.047 74.1875 217.656 73.5625C216.281 72.9219 215.055 72.1797 213.977 71.3359C212.898 70.4922 212.047 69.5078 211.422 68.3828C210.812 67.2578 210.508 65.9453 210.508 64.4453C210.508 62.9922 210.828 61.6797 211.469 60.5078C212.109 59.3359 213.008 58.3359 214.164 57.5078C215.32 56.6641 216.68 56.0234 218.242 55.5859C219.805 55.1328 221.523 54.9062 223.398 54.9062C225.898 54.9062 228.094 55.3516 229.984 56.2422C231.891 57.1172 233.375 58.3516 234.438 59.9453C235.5 61.5234 236.031 63.3594 236.031 65.4531H228.438C228.438 64.5312 228.242 63.7188 227.852 63.0156C227.477 62.2969 226.898 61.7344 226.117 61.3281C225.352 60.9219 224.391 60.7188 223.234 60.7188C222.109 60.7188 221.164 60.8906 220.398 61.2344C219.648 61.5625 219.078 62.0156 218.688 62.5938C218.312 63.1719 218.125 63.8047 218.125 64.4922C218.125 65.0391 218.266 65.5391 218.547 65.9922C218.844 66.4297 219.266 66.8438 219.812 67.2344C220.375 67.6094 221.062 67.9688 221.875 68.3125C222.688 68.6562 223.617 68.9844 224.664 69.2969C226.492 69.875 228.109 70.5156 229.516 71.2188C230.938 71.9219 232.133 72.7188 233.102 73.6094C234.07 74.5 234.797 75.5078 235.281 76.6328C235.781 77.7578 236.031 79.0312 236.031 80.4531C236.031 81.9688 235.734 83.3125 235.141 84.4844C234.562 85.6562 233.719 86.6562 232.609 87.4844C231.516 88.2969 230.203 88.9141 228.672 89.3359C227.141 89.7578 225.43 89.9688 223.539 89.9688C221.82 89.9688 220.125 89.75 218.453 89.3125C216.781 88.8594 215.266 88.1719 213.906 87.25C212.562 86.3281 211.484 85.1562 210.672 83.7344C209.875 82.2969 209.477 80.5938 209.477 78.625H217.117C217.117 79.6562 217.266 80.5312 217.562 81.25C217.859 81.9531 218.281 82.5234 218.828 82.9609C219.391 83.3984 220.07 83.7109 220.867 83.8984C221.664 84.0859 222.555 84.1797 223.539 84.1797C224.68 84.1797 225.602 84.0234 226.305 83.7109C227.023 83.3828 227.555 82.9375 227.898 82.375C228.242 81.8125 228.414 81.1875 228.414 80.5Z" fill="black"/>
<defs>
<clipPath id="clip0_3909_61142">
<rect width="160" height="65.282" fill="white" transform="translate(0 0.5)"/>
</clipPath>
</defs>
</svg>
