<svg width="32" height="32" viewBox="0 0 32 32" fill="none" xmlns="http://www.w3.org/2000/svg">
<path d="M27.3674 9.85933V9.72755L27.3195 9.6048L25.8495 5.8388L25.6756 5.39333H25.1974H7.47005H6.99184L6.81796 5.8388L5.34796 9.6048L5.30005 9.72755V9.85933V13.0793C5.30005 14.4583 6.42112 15.578 7.79938 15.578C8.70126 15.578 9.49295 15.099 9.93271 14.3816C10.3725 15.099 11.1642 15.578 12.066 15.578C12.9682 15.578 13.7605 15.099 14.2006 14.3814C14.6404 15.0989 15.4321 15.578 16.334 15.578C17.2356 15.578 18.027 15.0989 18.4667 14.3816C18.9065 15.099 19.6982 15.578 20.6 15.578C21.5021 15.578 22.294 15.0987 22.7337 14.3811C23.1734 15.0987 23.9653 15.578 24.8674 15.578C26.2461 15.578 27.3674 14.4584 27.3674 13.0793V9.85933Z" stroke="black" stroke-width="1.4"/>
<path d="M8.00005 17V25H25V17" stroke="black" stroke-width="1.4" stroke-linejoin="round"/>
</svg>
